<?xml version="1.0" encoding="UTF-8"?><svg id="a" xmlns="http://www.w3.org/2000/svg" viewBox="0 0 389.98 390.04"><defs><style>.b{fill:#f1ecf2;}</style></defs><path class="b" d="M307.86,.1c-3.79,.45-7.3,2.18-9.98,4.9L16.84,286.05c-2.52,2.52-4.17,5.76-4.72,9.27L.22,370.57h0c-.85,5.32,.9,10.73,4.71,14.54,3.81,3.81,9.22,5.56,14.54,4.71l75.25-11.9c3.52-.55,6.76-2.21,9.28-4.73L385.04,92.15h0c3.16-3.15,4.94-7.43,4.94-11.9s-1.78-8.75-4.94-11.9L321.69,5c-3.61-3.66-8.71-5.47-13.82-4.9h0Zm1.93,40.6l39.55,39.55-11.73,11.73-39.55-39.55,11.73-11.73Zm-35.52,35.52l39.55,39.55L84.05,345.56l-46.9,7.35,7.35-46.9L274.27,76.24h0Z"/></svg>